<svg id="Layer_1" xmlns="http://www.w3.org/2000/svg" viewBox="0 0 232.56 43.31"><defs><style>.cls-1{fill:#1e1e1b}.cls-2{fill:#52ae32}</style></defs><path class="cls-1" d="M227.14 2.62c0-1.8.56-2.62 2.63-2.62 1.77 0 2.6.62 2.6 2.62 0 1.89-.68 2.63-2.68 2.63-1.78 0-2.55-.75-2.55-2.63Zm4.54 0c0-1.32-.33-1.99-1.88-1.99-1.35 0-1.96.49-1.96 1.99 0 1.26.32 2 1.84 2 1.34 0 1.99-.52 1.99-2Zm-3.24 1.29V1.6c0-.3.15-.43.52-.43h1.35c.56 0 .76.3.76.97 0 .72-.3.84-.58.84h-.24l.87.94h-.87l-.7-.8c-.07-.07-.08-.21-.08-.29 0-.11 0-.3.26-.3h.26c.33 0 .36-.15.36-.38s-.04-.38-.36-.38h-.59c-.16 0-.23.02-.23.23v1.94h-.71ZM69.56 24.75H54.87c-1.92 0-3.26-.8-3.26-3.36V5.71c0-2.56 1.34-3.36 3.26-3.36h14.56v3.36h-12c-1.28 0-1.6.32-1.6 1.6v4.32h13.28v3.36H55.83v4.8c0 1.28.32 1.6 1.6 1.6h12.13v3.36ZM75.47 24.75c-1.92 0-3.26-.8-3.26-3.36V5.71c0-2.56 1.34-3.36 3.26-3.36h8.67c7.62 0 8.83 5.76 8.83 11.2s-1.22 11.2-8.26 11.2h-9.25Zm2.56-19.04c-1.28 0-1.6.32-1.6 1.6v12.48c0 1.28.32 1.6 1.6 1.6h4.64c5.12 0 5.95-3.36 5.95-7.84s-.83-7.84-5.95-7.84h-4.64ZM111.07 16.62V2.35h4.22v14.27c0 6.4-3.65 8.38-9.73 8.38s-9.73-1.98-9.73-8.38V2.35h4.22v14.27c0 3.52 1.66 5.02 5.5 5.02s5.5-1.5 5.5-5.02ZM128.36 20.43c.1.16.19.48.48.48s.38-.32.48-.48l6.69-18.08h4.58l-8.13 20.22c-.48 1.22-1.38 2.43-3.62 2.43s-3.14-1.22-3.62-2.43L117.1 2.35h4.58l6.69 18.08ZM159.98 24.75h-14.69c-1.92 0-3.26-.8-3.26-3.36V5.71c0-2.56 1.34-3.36 3.26-3.36h14.56v3.36h-12c-1.28 0-1.6.32-1.6 1.6v4.32h13.28v3.36h-13.28v4.8c0 1.28.32 1.6 1.6 1.6h12.13v3.36ZM162.74 24.75V5.71c0-2.56 1.34-3.36 3.26-3.36h11.29c4.16 0 5.6 2.59 5.6 7.07s-1.44 7.49-5.18 7.49h-2.24v.16l7.87 7.68h-5.44l-7.23-7.26c-.48-.51-1.06-1.25-1.06-1.89v-.51c0-.9.64-1.54 1.89-1.54h4.35c2.34 0 2.69-1.57 2.69-4.13s-.48-3.71-3.17-3.71h-6.82c-1.28 0-1.6.32-1.6 1.6v17.44h-4.22ZM185.53 21.39h12.42c2.02 0 2.11-1.66 2.11-2.43 0-.86-.22-1.92-2.18-2.53l-8.83-2.78c-2.94-.93-3.81-2.82-3.81-5.89s1.57-5.41 5.12-5.41h12.9v3.36h-11.78c-1.06 0-1.89.64-1.89 2.24 0 .99.16 1.95 1.95 2.53l8.19 2.59c3.26 1.02 4.67 2.4 4.67 5.92 0 3.3-1.34 5.76-4.8 5.76h-14.08v-3.36ZM224.87 24.75h-14.69c-1.92 0-3.26-.8-3.26-3.36V5.71c0-2.56 1.34-3.36 3.26-3.36h14.56v3.36h-12c-1.28 0-1.6.32-1.6 1.6v4.32h13.28v3.36h-13.28v4.8c0 1.28.32 1.6 1.6 1.6h12.13v3.36Z"/><g><path class="cls-2" d="M57.11 33.86c.07-.28.22-.73.99-.73.69 0 .91.42.99.73l1.33 4.88c.02.07.08.17.15.17.09 0 .14-.13.16-.21l1.42-5.49h1.37l-1.72 6.22c-.15.56-.34 1-1.15 1s-1.01-.44-1.14-.92l-1.25-4.62c-.03-.13-.07-.19-.13-.19-.07 0-.1.06-.14.19l-1.26 4.62c-.13.48-.32.92-1.13.92s-1.01-.44-1.16-1l-1.71-6.22h1.37l1.42 5.49c.02.07.04.21.15.21.07 0 .12-.1.15-.17l1.33-4.88ZM70.53 40.34h-1.35V37.2h-3.71v3.14h-1.35v-7.13h1.35v2.92h3.71v-2.92h1.35v7.13ZM77.42 40.34h-4.68c-.61 0-1.04-.25-1.04-1.07v-4.99c0-.82.43-1.07 1.04-1.07h4.64v1.07h-3.82c-.41 0-.51.1-.51.51v1.38h4.23v1.07h-4.23v1.53c0 .41.1.51.51.51h3.86v1.07ZM78.28 40.34v-6.06c0-.82.43-1.07 1.04-1.07h3.6c1.33 0 1.78.83 1.78 2.25s-.46 2.39-1.65 2.39h-.71v.05l2.51 2.45h-1.73l-2.3-2.31c-.15-.16-.34-.4-.34-.6v-.16c0-.29.2-.49.6-.49h1.39c.74 0 .86-.5.86-1.32s-.15-1.18-1.01-1.18h-2.17c-.41 0-.51.1-.51.51v5.55h-1.35ZM91.33 40.34h-4.68c-.61 0-1.04-.25-1.04-1.07v-4.99c0-.82.43-1.07 1.04-1.07h4.64v1.07h-3.82c-.41 0-.51.1-.51.51v1.38h4.23v1.07h-4.23v1.53c0 .41.1.51.51.51h3.86v1.07ZM98.06 33.86c.07-.28.22-.73.99-.73.69 0 .91.42.99.73l1.33 4.88c.02.07.08.17.15.17.09 0 .14-.13.16-.21l1.42-5.49h1.37l-1.72 6.22c-.15.56-.34 1-1.15 1s-1.01-.44-1.14-.92l-1.25-4.62c-.03-.13-.07-.19-.13-.19-.07 0-.1.06-.14.19l-1.26 4.62c-.13.48-.32.92-1.13.92s-1.01-.44-1.16-1l-1.71-6.22h1.37l1.42 5.49c.02.07.04.21.15.21.07 0 .12-.1.15-.17l1.33-4.88ZM105.08 40.34v-7.13h1.35v7.13h-1.35ZM108.61 40.34c-.61 0-1.04-.25-1.04-1.07v-6.06h1.35v5.55c0 .41.1.51.51.51h3.83v1.07h-4.65ZM114.93 40.34c-.61 0-1.04-.25-1.04-1.07v-6.06h1.35v5.55c0 .41.1.51.51.51h3.83v1.07h-4.65ZM126.51 33.21h1.45l-3.02 4.95v2.18h-1.35v-2.18l-3.02-4.95h1.45l2.24 3.74 2.24-3.74ZM135.21 36.77c0 2.88-1.01 3.65-3.67 3.65s-3.66-.76-3.66-3.65 1.02-3.65 3.66-3.65 3.67.76 3.67 3.65Zm-3.67 2.58c1.75 0 2.28-.54 2.28-2.58s-.53-2.58-2.28-2.58-2.27.54-2.27 2.58.52 2.58 2.27 2.58ZM140.98 37.75V33.2h1.34v4.55c0 2.04-1.16 2.67-3.1 2.67s-3.1-.63-3.1-2.67V33.2h1.35v4.55c0 1.12.53 1.6 1.75 1.6s1.75-.48 1.75-1.6ZM146.66 40.34c-.61 0-1.04-.25-1.04-1.07v-6.06h1.35v5.55c0 .41.1.51.51.51h3.83v1.07h-4.65ZM157.66 40.34h-4.68c-.61 0-1.04-.25-1.04-1.07v-4.99c0-.82.43-1.07 1.04-1.07h4.64v1.07h-3.82c-.41 0-.51.1-.51.51v1.38h4.23v1.07h-4.23v1.53c0 .41.1.51.51.51h3.86v1.07ZM160.75 33.93c.25-.6.53-.81 1.17-.81s.92.2 1.17.81l2.69 6.41h-1.42l-.73-1.8h-3.43l-.72 1.8h-1.42l2.69-6.41Zm-.2 3.65h2.74l-1.16-2.9c-.04-.11-.11-.3-.2-.3s-.16.18-.2.3l-1.17 2.9ZM166.34 40.34v-6.06c0-.82.43-1.07 1.04-1.07h3.6c1.33 0 1.78.83 1.78 2.25s-.46 2.39-1.65 2.39h-.71v.05l2.51 2.45h-1.73l-2.3-2.31c-.15-.16-.34-.4-.34-.6v-.16c0-.29.2-.49.6-.49h1.39c.74 0 .86-.5.86-1.32s-.15-1.18-1.01-1.18h-2.17c-.41 0-.51.1-.51.51v5.55h-1.35ZM180.52 39.41c0 .72-.48 1.01-1.06 1.01-.44 0-.84-.1-1.15-.6l-3.01-4.75c-.11-.15-.13-.17-.16-.17-.05 0-.14.05-.14.2v5.24h-1.3v-6.25c0-.61.41-.97 1.09-.97.64 0 .94.25 1.13.56l3.03 4.78c.05.07.07.17.16.17.11 0 .11-.12.11-.17V33.2h1.3v6.21ZM185.99 40.34v-6.06h-2.78v-1.07h6.92v1.07h-2.79v6.06h-1.35ZM197.79 36.77c0 2.88-1.01 3.65-3.67 3.65s-3.66-.76-3.66-3.65 1.02-3.65 3.66-3.65 3.67.76 3.67 3.65Zm-3.67 2.58c1.75 0 2.28-.54 2.28-2.58s-.53-2.58-2.28-2.58-2.27.54-2.27 2.58.52 2.58 2.27 2.58ZM199.77 40.34c-.61 0-1.04-.25-1.04-1.07v-4.99c0-.82.43-1.07 1.04-1.07h2.76c2.43 0 2.81 1.83 2.81 3.57s-.39 3.57-2.63 3.57h-2.95Zm.82-6.06c-.41 0-.51.1-.51.51v3.97c0 .41.1.51.51.51h1.48c1.63 0 1.9-1.07 1.9-2.5s-.27-2.5-1.9-2.5h-1.48ZM208.06 33.93c.25-.6.53-.81 1.17-.81s.92.2 1.17.81l2.69 6.41h-1.42l-.73-1.8h-3.43l-.72 1.8h-1.42l2.69-6.41Zm-.2 3.65h2.74l-1.16-2.9c-.04-.11-.11-.3-.2-.3s-.16.18-.2.3l-1.17 2.9ZM217.72 33.21h1.45l-3.02 4.95v2.18h-1.34v-2.18l-3.02-4.95h1.45l2.24 3.74 2.24-3.74ZM220.99 38.35v-.59c0-.64.3-.93.78-1.21l.66-.4c.35-.18.57-.37.57-.98s-.24-.9-.81-.9h-2.17V33.2h2.68c1.12 0 1.64.46 1.64 1.75 0 .61-.07 1.19-.88 1.68l-.79.48c-.25.14-.45.35-.45.67v.56h-1.24Zm0 .72h1.24v1.26h-1.24v-1.26Z"/></g><g><path class="cls-2" d="M9.99 21.03H.01C.54 9.76 9.83.79 21.24.79s20.7 8.97 21.23 20.24h-4.75c-.18-1.02-.65-2-1.44-2.78a5.209 5.209 0 0 0-7.36 0c-.78.78-1.25 1.76-1.43 2.78h-2.51c-.16-.68-.49-1.33-1.02-1.86a3.893 3.893 0 0 0-5.52 0c-.53.53-.86 1.18-1.02 1.86h-2.56c-.13-.35-.32-.67-.6-.94a2.595 2.595 0 0 0-3.68 0c-.27.27-.47.59-.59.94ZM42.48 22.9c-.45 11.36-9.79 20.41-21.24 20.41S.44 34.26 0 22.9h10.01c.13.32.32.61.57.87a2.613 2.613 0 0 0 3.68 0c.26-.26.45-.55.57-.87h2.61c.17.65.49 1.27 1 1.78 1.53 1.53 4 1.53 5.52 0 .51-.51.83-1.13 1-1.78h2.53c.19.99.67 1.94 1.43 2.7a5.19 5.19 0 0 0 7.36 0c.77-.76 1.24-1.71 1.43-2.7h4.77Z"/></g></svg>